<svg viewBox="0 0 138 23" xmlns="http://www.w3.org/2000/svg" fill-rule="evenodd" clip-rule="evenodd" stroke-linejoin="round"
     stroke-miterlimit="1.414">
    <path d="M40.252 0l-3.5 9h-8l6.625 4.875L32.752 23l7.5-6 7.5 6-2.625-9.125L51.752 9h-8l-3.5-9zM11.5 0L8 9H0l6.625 4.875L4 23l7.5-6 7.5 6-2.625-9.125L23 9h-8l-3.5-9zM126.508 0l-3.5 9h-8l6.625 4.875L119.008 23l7.5-6 7.5 6-2.625-9.125L138.008 9h-8l-3.5-9zM97.756 0l-3.5 9h-8l6.625 4.875L90.256 23l7.5-6 7.5 6-2.625-9.125L109.256 9h-8l-3.5-9zM69.004 0l-3.5 9h-8l6.625 4.875L61.504 23l7.5-6 7.5 6-2.625-9.125L80.504 9h-8l-3.5-9z"
          fill="#8e8e93"/>
</svg>