<svg xmlns="http://www.w3.org/2000/svg" width="100%" height="100%" fill-rule="evenodd" stroke-linejoin="round" stroke-miterlimit="1.41"
     clip-rule="evenodd" version="1.1" viewBox="0 0 460 460" xml:space="preserve">
	<path fill="none" stroke="#000" stroke-opacity=".1" stroke-width="1" vector-effect="non-scaling-stroke"
          d="M315.95 459.56h-171.9c-5.48 0-10.96 0-16.44-.03-4.62-.03-9.24-.08-13.86-.21a201.05 201.05 0 0 1-30.16-2.65c-9.97-1.7-19.63-4.9-28.66-9.45a96.45 96.45 0 0 1-42.16-42.14 101.76 101.76 0 0 1-9.44-28.69 201.33 201.33 0 0 1-2.66-30.15c-.12-4.62-.18-9.23-.2-13.85-.04-5.49-.04-10.97-.04-16.46V144.05c0-5.49 0-10.97.04-16.46.02-4.62.08-9.24.2-13.86.13-10.1 1.02-20.17 2.66-30.14 1.7-9.98 4.89-19.64 9.45-28.68a96.43 96.43 0 0 1 42.15-42.15A102.06 102.06 0 0 1 83.59 3.3 201.06 201.06 0 0 1 113.75.66c4.62-.12 9.24-.18 13.86-.2 5.48-.03 10.97-.03 16.45-.03h171.89c5.49 0 10.97 0 16.45.03 4.62.02 9.24.08 13.86.2a201.2 201.2 0 0 1 30.16 2.65c9.97 1.7 19.63 4.9 28.66 9.45a96.41 96.41 0 0 1 42.16 42.15c4.56 9.04 7.74 18.7 9.45 28.68a201.2 201.2 0 0 1 2.65 30.15c.12 4.62.18 9.24.2 13.85l.02 6.95v188.24l-.02 9.6c-.02 4.62-.09 9.24-.2 13.86a201.34 201.34 0 0 1-2.66 30.15 101.42 101.42 0 0 1-9.45 28.68 96.44 96.44 0 0 1-42.15 42.15 101.69 101.69 0 0 1-28.66 9.45 201.05 201.05 0 0 1-30.16 2.65c-4.62.12-9.24.18-13.86.2l-16.45.04z"/>
</svg>