<svg viewBox="0 0 13 29" xmlns="http://www.w3.org/2000/svg" fill-rule="evenodd" clip-rule="evenodd" stroke-linejoin="round"
     stroke-miterlimit="1.414">
    <path d="M6.496.173L4.521 5.251H.007l3.738 2.751-1.481 5.149 4.232-3.386 4.232 3.386-1.482-5.149 3.739-2.751H8.471L6.496.173zM6.496 14.338l-1.985 5.104H-.026l3.757 2.767-1.489 5.173 4.254-3.403 4.253 3.403-1.488-5.173 3.757-2.767H8.481l-1.985-5.104zm0 1.558l1.456 3.744.141.364h3.198l-2.367 1.743-.317.234.109.38.995 3.459-2.861-2.288-.354-.283-.355.283-2.861 2.29.996-3.46.109-.379-.318-.234L1.7 20.004h3.199l.14-.362 1.457-3.743"
          fill="#8e8e93"/>
</svg>